<?xml version="1.0" standalone="no"?>
<!DOCTYPE svg PUBLIC "-//W3C//DTD SVG 20010904//EN"
 "http://www.w3.org/TR/2001/REC-SVG-20010904/DTD/svg10.dtd">
<svg version="1.0" xmlns="http://www.w3.org/2000/svg"
 width="640.000000pt" height="275.000000pt" viewBox="0 0 640.000000 275.000000"
 preserveAspectRatio="xMidYMid meet">
<metadata>
Created by potrace 1.16, written by Peter Selinger 2001-2019
</metadata>
<g transform="translate(0.000000,275.000000) scale(0.100000,-0.100000)"
fill="#000000" stroke="none">
<path d="M870 1560 l0 -1190 197 2 198 3 2 55 c2 30 1 69 -2 87 l-6 32 -102 3
-102 3 -6 70 c-4 39 -7 532 -8 1098 l-1 1027 -85 0 -85 0 0 -1190z"/>
<path d="M1666 2730 c-102 -51 -203 -161 -238 -257 -8 -25 -13 -86 -13 -173 0
-133 1 -136 34 -204 45 -91 119 -164 217 -213 77 -37 79 -38 194 -38 113 0
119 1 185 34 92 46 177 131 214 213 34 77 44 132 35 209 l-7 59 -238 0 -239 0
0 -84 0 -83 115 -7 c64 -4 121 -4 127 0 16 10 3 -22 -25 -63 -30 -45 -70 -65
-141 -70 -79 -7 -132 8 -183 52 -54 46 -77 108 -77 200 0 156 78 243 227 250
80 5 128 -15 166 -66 l22 -29 124 0 c82 0 125 4 125 11 0 5 -12 35 -26 65 -32
68 -106 141 -183 183 l-59 31 -158 0 c-137 -1 -164 -4 -198 -20z"/>
<path d="M3970 2301 l0 -449 118 -4 c64 -2 185 -1 267 2 142 5 153 7 204 35
63 35 100 85 112 152 19 101 -16 185 -105 248 l-48 34 29 14 c32 17 75 61 92
94 14 28 14 143 0 180 -15 40 -67 91 -121 119 -46 23 -53 24 -298 24 l-250 0
0 -449z m441 250 c30 -31 36 -61 19 -106 -17 -44 -72 -56 -222 -47 l-28 2 0
83 c0 46 3 87 7 90 3 4 49 7 100 7 91 0 96 -1 124 -29z m9 -351 c53 -38 51
-127 -3 -161 -26 -15 -51 -19 -132 -19 l-100 0 -3 100 -3 100 106 0 c91 0 111
-3 135 -20z"/>
<path d="M4940 2660 l0 -90 325 0 325 0 0 -905 0 -905 85 0 85 0 0 995 0 995
-410 0 -410 0 0 -90z"/>
<path d="M2585 2571 c-92 -24 -181 -96 -222 -179 -26 -53 -28 -66 -28 -182 0
-116 2 -129 28 -181 31 -63 93 -126 159 -160 34 -18 64 -24 143 -27 90 -4 106
-2 157 21 77 34 121 69 158 125 58 88 39 108 -98 100 -60 -3 -87 -10 -123 -31
-39 -23 -52 -26 -97 -20 -56 6 -112 45 -112 77 0 14 27 16 246 16 l246 0 -4
103 c-3 93 -7 108 -38 165 -38 71 -75 106 -157 148 -47 23 -71 28 -142 31 -47
1 -99 -1 -116 -6z m179 -210 c27 -18 55 -55 56 -73 0 -5 -61 -8 -135 -8 -74 0
-135 3 -135 8 0 16 40 66 62 78 36 20 118 17 152 -5z"/>
<path d="M3460 2559 c-25 -11 -62 -37 -83 -57 -31 -30 -37 -33 -36 -17 1 11 1
35 1 53 l-2 32 -105 0 -105 0 0 -360 0 -360 104 0 104 0 4 223 c3 217 4 223
27 254 56 74 189 72 238 -4 16 -23 18 -58 21 -250 l4 -223 105 0 105 0 -4 258
c-3 252 -4 258 -29 312 -32 68 -69 106 -134 136 -65 31 -152 32 -215 3z"/>
<path d="M1530 1241 l0 -471 203 0 c240 0 299 8 393 55 87 43 154 111 197 203
31 66 32 70 32 212 0 143 0 146 -33 215 -52 110 -134 185 -251 228 -49 18 -84
21 -298 25 l-243 4 0 -471z m449 242 c65 -22 98 -51 128 -111 22 -45 27 -68
26 -131 0 -173 -85 -250 -285 -259 l-98 -4 0 260 0 261 63 4 c73 4 106 0 166
-20z"/>
<path d="M3430 1600 l0 -90 -50 0 -50 0 0 -95 0 -95 50 0 50 0 0 -172 c0 -190
9 -238 54 -294 46 -58 97 -77 214 -82 l102 -4 0 99 0 100 -61 6 c-35 3 -65 11
-70 19 -5 7 -9 82 -9 166 l0 152 54 0 c87 0 86 -1 86 105 0 106 1 105 -86 105
l-54 0 0 69 c0 105 5 101 -121 101 l-109 0 0 -90z"/>
<path d="M2645 1496 c-75 -34 -140 -112 -166 -197 -31 -101 -25 -270 13 -350
53 -115 138 -177 254 -187 95 -7 148 11 212 74 l52 53 0 -60 0 -59 110 0 110
0 0 370 0 370 -110 0 -109 0 -3 -61 -3 -62 -25 39 c-16 24 -45 49 -79 66 -72
38 -181 40 -256 4z m290 -207 c79 -47 96 -184 34 -263 -66 -84 -207 -76 -259
16 -42 74 -23 206 34 244 56 36 134 38 191 3z"/>
<path d="M4071 1489 c-106 -53 -167 -161 -178 -314 -17 -249 128 -428 336
-413 77 6 135 32 178 82 l31 34 7 -54 6 -54 110 0 109 0 0 370 0 370 -109 0
-109 0 -6 -54 -7 -55 -37 41 c-52 58 -101 78 -193 78 -65 0 -85 -4 -138 -31z
m294 -198 c51 -29 75 -76 75 -143 0 -109 -49 -168 -146 -176 -63 -5 -120 22
-150 71 -24 42 -26 149 -2 193 41 76 143 101 223 55z"/>
<path d="M4884 1000 c-39 -16 -64 -59 -64 -112 0 -27 4 -58 10 -68 14 -26 73
-60 105 -60 58 0 115 67 115 136 0 29 -8 44 -39 75 -40 40 -78 49 -127 29z"/>
<path d="M1575 638 c-2 -7 -5 -22 -7 -33 -2 -14 -12 -21 -36 -23 -26 -3 -32
-7 -32 -28 0 -19 5 -24 26 -24 21 0 25 -4 22 -22 -2 -18 -11 -24 -35 -26 -25
-2 -33 -8 -33 -23 0 -17 17 -25 43 -20 5 1 6 -17 2 -39 -6 -36 -5 -40 14 -40
15 0 22 9 27 35 3 19 11 35 18 35 6 0 21 3 34 6 20 6 22 3 22 -36 0 -34 3 -41
17 -38 11 2 20 15 23 33 4 23 12 31 38 39 41 11 46 46 6 46 -21 0 -25 4 -22
23 2 17 11 23 36 25 27 3 32 7 32 29 0 22 -4 25 -26 20 -24 -4 -25 -3 -19 34
6 34 4 39 -13 39 -15 0 -22 -10 -29 -37 -7 -32 -12 -36 -41 -37 -31 -1 -32 1
-32 37 0 27 -4 37 -15 37 -9 0 -17 -6 -20 -12z"/>
<path d="M3180 505 c0 -138 1 -145 20 -145 18 0 20 7 20 70 0 58 4 74 21 91
15 15 28 19 47 14 15 -4 29 -9 32 -12 3 -2 7 -39 10 -81 4 -63 8 -77 23 -80
15 -3 17 6 17 87 0 78 -3 94 -20 111 -27 27 -83 27 -110 -2 l-20 -22 0 57 c0
50 -2 57 -20 57 -19 0 -20 -7 -20 -145z"/>
<path d="M1859 626 c-42 -24 -59 -59 -59 -121 0 -70 21 -112 65 -131 62 -26
125 -10 159 38 35 50 5 65 -46 23 -34 -29 -57 -31 -97 -10 -33 16 -41 33 -41
81 0 75 79 108 138 59 58 -49 85 -21 34 36 -23 26 -37 32 -78 35 -31 3 -58 -1
-75 -10z"/>
<path d="M3420 499 l0 -141 74 4 c90 4 116 22 116 79 0 27 -6 42 -20 52 -18
13 -19 15 -5 21 12 4 15 17 13 53 -4 59 -26 73 -115 73 l-63 0 0 -141z"/>
<path d="M4840 628 c-92 -49 -93 -205 -1 -253 57 -29 143 -8 169 42 13 24 18
75 9 91 -12 19 -116 16 -124 -3 -8 -21 -4 -24 45 -26 49 -3 54 -18 16 -48 -63
-50 -134 -11 -134 71 0 38 5 50 26 67 37 29 85 27 114 -4 31 -33 64 -34 55 -2
-4 12 -17 33 -30 46 -28 29 -107 39 -145 19z"/>
<path d="M5542 504 l3 -139 71 0 c57 0 76 4 93 19 28 26 29 91 2 108 -16 10
-17 14 -5 22 25 19 28 69 6 96 -17 21 -30 25 -96 28 l-77 4 3 -138z"/>
<path d="M2105 555 c-21 -20 -25 -34 -25 -80 0 -49 4 -60 29 -86 35 -35 81
-39 110 -10 20 20 20 20 26 0 4 -12 14 -19 23 -17 14 3 17 20 20 111 3 101 2
107 -17 107 -11 0 -24 -7 -29 -16 -8 -14 -10 -14 -21 0 -21 26 -87 21 -116 -9z"/>
<path d="M2340 469 c0 -100 2 -110 18 -107 14 3 18 17 22 76 4 58 9 77 24 88
25 18 36 18 64 -2 19 -13 22 -24 22 -90 0 -67 2 -74 20 -74 19 0 20 7 20 90 0
77 -3 93 -20 110 -24 24 -77 26 -108 4 -20 -14 -22 -14 -22 0 0 9 -9 16 -20
16 -19 0 -20 -7 -20 -111z"/>
<path d="M2605 557 c-20 -16 -28 -35 -32 -68 -12 -101 70 -164 141 -108 l26
20 0 -28 c0 -37 -10 -50 -43 -58 -21 -6 -36 -2 -57 14 -26 19 -60 28 -60 17 0
-49 68 -92 126 -81 62 11 74 40 74 186 0 122 -1 129 -20 129 -14 0 -20 -7 -20
-22 l0 -22 -20 22 c-28 30 -81 29 -115 -1z"/>
<path d="M2857 560 c-32 -26 -44 -79 -28 -130 19 -65 94 -92 139 -50 l22 21 0
-26 c0 -15 -5 -35 -10 -46 -14 -25 -64 -25 -90 1 -38 38 -65 17 -40 -30 13
-24 72 -43 110 -35 59 13 70 42 70 186 0 122 -1 129 -20 129 -11 0 -20 -7 -20
-16 0 -14 -2 -14 -22 0 -31 22 -80 20 -111 -4z"/>
<path d="M3674 557 c-56 -48 -35 -176 31 -193 31 -8 69 1 89 22 15 14 16 14
16 -5 0 -14 6 -21 20 -21 19 0 20 7 20 110 0 103 -1 110 -20 110 -11 0 -20 -7
-20 -16 0 -14 -2 -14 -22 0 -33 23 -82 20 -114 -7z"/>
<path d="M4075 556 c-49 -49 -40 -152 15 -181 43 -22 84 -19 119 11 38 31 40
54 6 54 -14 0 -25 -4 -25 -9 0 -7 -51 -31 -66 -31 -9 0 -34 34 -34 46 0 11 17
14 75 14 l75 0 0 35 c0 51 -39 85 -97 85 -33 0 -50 -6 -68 -24z"/>
<path d="M4285 538 c-3 -24 -5 -72 -3 -108 3 -57 5 -65 23 -65 18 0 21 8 25
77 3 42 7 79 10 81 14 14 57 17 74 4 18 -13 24 -42 25 -129 1 -32 5 -38 22
-38 20 0 21 4 17 89 -2 70 -7 93 -22 110 -23 26 -87 29 -107 5 -11 -14 -13
-14 -21 0 -17 30 -37 18 -43 -26z"/>
<path d="M4559 567 c-26 -20 -39 -53 -39 -102 0 -38 5 -52 29 -76 35 -35 81
-39 111 -9 l20 20 0 -33 c0 -18 -5 -38 -12 -45 -19 -19 -63 -14 -83 8 -23 25
-55 26 -55 2 0 -47 85 -85 140 -62 50 21 60 53 60 190 0 120 0 121 -22 118
-13 -2 -22 -9 -20 -16 3 -17 -13 -15 -28 3 -15 18 -78 19 -101 2z"/>
<path d="M5091 554 c-28 -23 -31 -32 -31 -81 0 -47 4 -59 29 -84 35 -35 81
-38 129 -9 22 14 32 27 32 45 0 31 -11 32 -48 0 -17 -14 -36 -25 -44 -25 -16
0 -58 36 -58 50 0 6 36 10 81 10 l82 0 -6 38 c-13 78 -103 109 -166 56z"/>
<path d="M5300 469 c0 -100 2 -110 18 -107 14 3 18 17 22 76 6 83 24 108 70
97 35 -9 40 -21 40 -102 0 -66 2 -73 20 -73 19 0 20 7 20 90 0 77 -3 93 -20
110 -27 27 -83 27 -110 -2 l-20 -22 0 22 c0 15 -6 22 -20 22 -19 0 -20 -7 -20
-111z"/>
</g>
</svg>
